<?xml version="1.0" standalone="no"?><!DOCTYPE svg PUBLIC "-//W3C//DTD SVG 1.1//EN"
        "http://www.w3.org/Graphics/SVG/1.1/DTD/svg11.dtd">
<svg t="1612597246407" class="icon" viewBox="0 0 1024 1024" version="1.1" xmlns="http://www.w3.org/2000/svg" p-id="1814"
     width="200" height="200">
    <defs>
        <style type="text/css"></style>
    </defs>
    <path d="M514.048 317.952H64V138.24c0-22.016 17.92-39.936 39.936-39.936h370.176c22.016 0 39.936 17.92 39.936 39.936v179.712z"
          fill="#FFB156" p-id="1815" data-spm-anchor-id="a313x.7781069.0.i4" class=""></path>
    <path d="M919.552 951.296H104.448c-22.016 0-39.936-17.92-39.936-39.936V241.152h855.04c22.016 0 39.936 17.92 39.936 39.936v629.76c0 22.528-17.92 40.448-39.936 40.448z"
          fill="#FEC965" p-id="1816" data-spm-anchor-id="a313x.7781069.0.i3" class="selected"></path>
    <path d="M742.4 450.05312h-88.064v-35.328c0-29.184-23.552-52.736-52.736-53.248H424.448c-29.184 0-53.248 23.552-53.248 53.248v35.328H283.136c-9.728-0.512-17.92 7.168-18.432 16.896-0.512 9.728 7.168 17.92 16.896 18.432h461.312c9.728-0.512 17.408-8.704 16.896-18.432-0.512-9.216-8.192-16.384-17.408-16.896zM671.744 520.70912H353.792c-9.728 0-17.408 7.68-17.92 16.896v266.24c0 29.184 23.552 53.248 53.248 53.248h247.296c29.184 0 52.736-23.552 52.736-53.248v-265.216c0.512-9.728-7.68-17.92-17.408-17.92z m-194.56 247.808c0 9.728-8.192 17.408-17.92 17.408s-17.408-7.68-17.408-17.408v-194.56c0-9.728 8.192-17.408 17.92-17.408s17.408 7.68 17.408 17.408v194.56z m105.984 0c0 9.728-8.192 17.408-17.92 17.408s-17.408-7.68-17.408-17.408v-194.56c0-9.728 8.192-17.408 17.92-17.408s17.408 7.68 17.408 17.408v194.56z"
          fill="#FFFFFF" p-id="1817" data-spm-anchor-id="a313x.7781069.0.i0" class=""></path>
</svg>